<svg width="184" height="108" fill="none" xmlns="http://www.w3.org/2000/svg"><path d="M120.413 16.183l-.011-.857 1.815-.05 2.658 2.657-1.234 1.234-3.228-2.984zm.268 5.942h-.2l-.067-5.681 3.083 2.865-2.816 2.816zm-6.295 6.295v-6.126l6.12.004-6.12 6.122zm.568-20.408l2.934 2.933.111 11.179-3.611.006V8.011h.566zm-9.068 17.214l.005-2.495 8.281-8.424.003 2.643-8.289 8.276zm6.641 5.054l.029-7.983 1.593-.003v6.363l-1.622 1.623zm-5.255 5.255l-1.373-1.373v-1.593l6.424-6.558v4.471l-5.051 5.053zm-1.381-9.924l.001-.024 3.282-3.283 3.149-.007v3.311l-6.426 6.558-.006-6.555zm-4.992-3.147l13.274-13.26-.003 4.81-8.449 8.45h-4.822zm4.8 7.824l-1.837 1.837-6.401-6.402 8.237.003.001 4.562zm-8.888-5.217l-.014-2.434h8.751l-2.822 2.877h-5.474l-.441-.443zm-.236-.235l-2.193-2.194 2.193-.005v2.2zm-5.069-5.07l4.531-.002 2.49 2.7-4.33-.007-2.691-2.69zm-.362-.362l-.006-2.938 1.248-1.249h6.247v4.351L91.3 19.56l-.156-.156zm-.206-.206l-1.266-1.266 1.266-1.266v2.532zM98.633 8.97v3.753h-3.752l3.752-3.753zm.49-.49l5.444 5.343-5.626 5.629-.024-10.767.206-.205zm.49-.49h1.596l4.614 4.577-1.058 1.058-5.444-5.343.293-.293zm1.288-1.287h2.929l.002 1.09h-4.024l1.093-1.09zm2.931-2.932V5.66l-.919-.969.919-.919zm.201-.201l1.783-1.783 6.008 6.008h-7.791V3.57zm3.24-3.24l2.934 2.933-1.248 1.248-2.921-2.921 1.235-1.26zm5.851 5.85l-.09 1.614h-.842l-3.065-3.104 1.253-1.253 2.744 2.744zm-7.119 6.205l-4.422-4.398h1.721l3.543 3.557-.842.84zm8.17-3.602l-13.637 13.68h-1.445v-2.749L110.73 8.01h3.445v.773zm7.879 6.328l-1.654.041-.021-1.715 1.675 1.674zM107.272 0L89.341 17.933l17.931 17.932 17.932-17.932L107.272 0zM48.355 52.802c0 .212.016.365.049.459a.293.293 0 00.19.19c.094.032.246.048.458.048h.417c.637 0 1.188-.168 1.653-.507.464-.34.775-.798.93-1.378 0-.017.017-.025.049-.025.016 0 .035.006.055.02.02.012.03.021.03.03-.073.807-.11 1.48-.11 2.02 0 .065-.014.112-.044.14-.029.03-.075.044-.14.044h-5.78c-.016 0-.024-.025-.024-.073 0-.05.008-.074.025-.074.26 0 .45-.02.57-.06a.38.38 0 00.244-.24c.044-.118.068-.3.068-.544v-5.669c0-.244-.023-.423-.068-.539a.41.41 0 00-.252-.239c-.122-.045-.31-.067-.563-.067-.017 0-.025-.025-.025-.073 0-.05.008-.074.025-.074l.624.012c.375.016.686.024.93.024.245 0 .555-.008.93-.024l.625-.012c.025 0 .037.025.037.074 0 .048-.012.073-.037.073-.253 0-.441.022-.564.067a.388.388 0 00-.244.245c-.04.119-.062.3-.062.545v5.608l.004-.001zm10.755-6.086c-.2-.252-.48-.38-.839-.38-.016 0-.025-.024-.025-.073 0-.048.009-.073.025-.073l.588.012c.31.016.56.024.747.024.155 0 .38-.008.673-.024l.563-.012c.017 0 .025.025.025.073 0 .05-.008.074-.025.074a.865.865 0 00-.746.38c-.18.252-.269.6-.269 1.04v3.404c0 .572-.127 1.073-.38 1.506a2.53 2.53 0 01-1.071.998c-.461.233-.994.35-1.598.35-.604 0-1.139-.115-1.604-.343a2.594 2.594 0 01-1.096-.998c-.265-.437-.398-.95-.398-1.537v-3.955c0-.244-.022-.424-.067-.539a.41.41 0 00-.245-.239c-.119-.045-.304-.067-.557-.067-.024 0-.036-.025-.036-.074 0-.048.012-.073.036-.073l.65.012c.374.016.672.024.894.024.244 0 .554-.008.93-.024l.624-.012c.025 0 .038.025.038.073 0 .05-.012.074-.038.074-.252 0-.439.024-.556.073a.421.421 0 00-.245.25c-.045.12-.068.301-.068.546v3.502c0 .97.193 1.69.576 2.154.383.465.926.698 1.628.698.702 0 1.208-.206 1.592-.618.383-.413.575-1.002.575-1.77v-3.415c0-.442-.101-.787-.302-1.04zm9.837 7.053c0 .048-.012.073-.037.073-.237 0-.421-.004-.551-.012l-.735-.011-1.004.011c-.155.008-.372.012-.649.012-.024 0-.037-.025-.037-.073 0-.05.013-.074.037-.074.27 0 .404-.069.404-.209a.5.5 0 00-.11-.268l-1.677-2.597-1.053 1.506c-.318.449-.478.812-.478 1.09 0 .318.212.478.637.478.017 0 .025.025.025.074 0 .048-.008.073-.025.073-.269 0-.473-.004-.612-.012l-.906-.011-.576.011a7.543 7.543 0 01-.513.012c-.024 0-.037-.025-.037-.073 0-.05.012-.074.037-.074.253 0 .564-.135.93-.404.367-.27.752-.681 1.151-1.237l1.249-1.69-1.96-3.049c-.22-.35-.433-.602-.636-.753a1.069 1.069 0 00-.649-.226c-.024 0-.037-.025-.037-.074 0-.049.012-.073.037-.073l.526.012c.229.016.4.024.515.024.285 0 .64-.008 1.066-.024l.697-.012c.017 0 .025.024.025.073 0 .05-.008.074-.025.074-.277 0-.416.07-.416.208 0 .065.035.16.11.282l1.617 2.485.979-1.395c.318-.458.477-.824.477-1.102 0-.318-.212-.477-.637-.477-.016 0-.024-.025-.024-.074 0-.048.008-.073.024-.073l.613.012c.326.016.629.024.906.024.171 0 .363-.008.575-.024l.514-.012c.024 0 .037.025.037.073 0 .05-.013.074-.037.074-.261 0-.573.136-.936.41-.364.273-.75.688-1.157 1.242l-1.163 1.593 2.094 3.244c.203.302.412.523.624.662.212.138.457.208.735.208.024 0 .036.024.036.073zm6.69-7.053c-.2-.252-.48-.38-.838-.38-.017 0-.025-.024-.025-.073 0-.048.008-.073.025-.073l.588.012c.31.016.559.024.746.024.155 0 .38-.008.674-.024l.563-.012c.016 0 .025.025.025.073 0 .05-.008.074-.025.074a.865.865 0 00-.746.38c-.18.252-.27.6-.27 1.04v3.404c0 .572-.126 1.073-.379 1.506a2.53 2.53 0 01-1.071.998c-.462.233-.994.35-1.598.35-.605 0-1.14-.115-1.604-.343a2.595 2.595 0 01-1.096-.998c-.265-.437-.398-.95-.398-1.537v-3.955c0-.244-.022-.424-.068-.539a.409.409 0 00-.244-.239c-.119-.045-.304-.067-.557-.067-.024 0-.036-.025-.036-.074 0-.048.012-.073.036-.073l.649.012c.375.016.673.024.894.024.245 0 .555-.008.93-.024l.625-.012c.024 0 .037.025.037.073 0 .05-.011.074-.037.074-.253 0-.439.024-.557.073a.421.421 0 00-.244.25c-.046.12-.068.301-.068.546v3.502c0 .97.192 1.69.576 2.154.383.465.925.698 1.628.698.702 0 1.207-.206 1.592-.618.383-.413.575-1.002.575-1.77v-3.415c0-.442-.101-.787-.302-1.04zm10.609 7.053c0 .048-.009.073-.025.073h-2.179c-.18 0-.514-.324-1.004-.974-.49-.649-1.082-1.557-1.775-2.724a2.44 2.44 0 01-.281.013c-.318 0-.543-.005-.674-.013v2.706c0 .252.02.436.062.55.04.115.12.193.239.233.119.041.307.06.57.06.016 0 .024.025.024.074 0 .05-.008.073-.025.073-.269 0-.482-.003-.637-.011l-.93-.012-.895.012a14.4 14.4 0 01-.66.011c-.025 0-.037-.024-.037-.073 0-.049.012-.073.036-.073.26 0 .45-.02.57-.06.118-.041.2-.12.244-.24.044-.118.067-.3.067-.544v-5.67c0-.244-.02-.424-.061-.539a.386.386 0 00-.245-.239c-.122-.045-.31-.067-.563-.067-.017 0-.025-.025-.025-.074 0-.049.008-.073.025-.073l.648.012c.375.016.673.024.895.024.277 0 .567-.013.868-.037a10.37 10.37 0 01.93-.036c.744 0 1.32.136 1.727.41.407.273.613.654.613 1.144 0 .45-.123.855-.367 1.218a2.722 2.722 0 01-.98.877c.654.979 1.2 1.746 1.641 2.3.442.556.833.96 1.175 1.213.343.253.678.38 1.004.38.016 0 .025.026.025.075zm-5.228-3.918c.473 0 .814-.133 1.022-.399.209-.265.312-.692.312-1.28 0-.668-.098-1.13-.293-1.383-.196-.253-.478-.38-.844-.38-.327 0-.56.06-.698.184-.139.122-.209.326-.209.613V49.8c.196.033.431.05.71.05zm12.046-3.588c0 .05-.008.074-.024.074-.253 0-.564.157-.93.471a4.81 4.81 0 00-.98 1.181l-1.273 2.13v2.73c0 .253.02.437.06.551.041.115.12.193.24.233.118.041.307.06.569.06.024 0 .036.025.036.074 0 .05-.012.073-.036.073-.27 0-.483-.003-.637-.011l-.918-.012-.906.012c-.163.008-.384.011-.662.011-.016 0-.024-.024-.024-.073 0-.049.008-.073.024-.073.261 0 .454-.02.576-.06a.387.387 0 00.251-.24c.044-.118.068-.3.068-.544v-2.473l-1.788-2.779c-.301-.473-.553-.801-.753-.985-.2-.184-.37-.276-.508-.276-.025 0-.037-.025-.037-.074 0-.048.011-.073.037-.073l.38.012c.179.016.306.024.38.024.285 0 .697-.008 1.236-.024l.808-.012c.016 0 .025.025.025.073 0 .05-.009.074-.025.074a.493.493 0 00-.325.098.32.32 0 00-.116.257c0 .13.057.285.171.465l1.677 2.645 1.126-1.923c.22-.367.33-.681.33-.942 0-.196-.058-.345-.176-.448-.119-.1-.288-.152-.508-.152-.024 0-.036-.025-.036-.074 0-.048.012-.073.036-.073l.649.012c.375.016.71.024 1.004.024.138 0 .306-.008.502-.024l.453-.012c.016 0 .024.025.024.073zm14.018 0c0 .05-.008.074-.024.074-.302 0-.586.128-.852.385-.265.258-.483.61-.654 1.059l-2.265 6.048c-.008.032-.054.049-.135.049-.082 0-.127-.017-.135-.05l-1.568-3.317-1.237 3.318c-.008.032-.053.049-.135.049-.081 0-.127-.017-.135-.05l-3.122-6.622a4.479 4.479 0 00-.3-.564.675.675 0 00-.258-.239.867.867 0 00-.374-.067c-.024 0-.037-.025-.037-.074 0-.049.012-.073.037-.073.122 0 .209.005.258.012.163.016.374.024.637.024.547 0 1.007-.008 1.383-.024.106-.009.237-.012.392-.012.024 0 .037.024.037.073 0 .05-.013.074-.037.074-.204 0-.35.02-.435.06-.086.041-.13.114-.13.22 0 .139.095.408.283.809l2.203 4.677.771-2.02-1.36-2.878c-.138-.293-.268-.512-.39-.654-.123-.142-.253-.214-.392-.214-.024 0-.036-.025-.036-.074 0-.049.012-.073.036-.073.082 0 .177.006.288.019.11.012.267.018.472.018.464 0 .852-.008 1.163-.024a3.31 3.31 0 01.318-.012c.024 0 .036.025.036.073 0 .05-.012.074-.036.074a.555.555 0 00-.252.043c-.053.029-.079.079-.079.152 0 .14.111.437.331.894l.539 1.139.307-.82c.179-.465.269-.816.269-1.053 0-.236-.103-.355-.307-.355-.024 0-.037-.025-.037-.074 0-.048.011-.073.037-.073.065 0 .137.006.215.019.076.012.271.018.581.018.138 0 .306-.008.502-.024l.453-.012c.016 0 .024.025.024.074 0 .048-.008.073-.024.073-.548 0-1.001.482-1.359 1.444l-.454 1.213 1.47 3.098 1.579-4.225a2.04 2.04 0 00.147-.71c0-.253-.063-.453-.19-.6a.637.637 0 00-.507-.22c-.025 0-.038-.025-.038-.073 0-.05.012-.074.038-.074l.563.012c.294.016.564.024.808.024.163 0 .351-.008.564-.024l.526-.012c.017 0 .025.025.025.074l.002-.002zm2.002 7.193a3.645 3.645 0 01-1.371-1.445 4.187 4.187 0 01-.483-1.99c0-.84.212-1.56.637-2.16a3.99 3.99 0 011.635-1.353 4.887 4.887 0 012.038-.453c.776 0 1.457.181 2.045.545a3.693 3.693 0 011.353 1.438c.315.597.472 1.229.472 1.898 0 .743-.195 1.424-.588 2.045a4.229 4.229 0 01-1.573 1.47 4.398 4.398 0 01-2.136.539c-.767 0-1.435-.177-2.027-.533h-.002zm3.66-.171c.364-.265.647-.653.852-1.163.203-.51.306-1.12.306-1.831 0-.751-.114-1.422-.342-2.014-.229-.592-.559-1.055-.993-1.39a2.41 2.41 0 00-1.518-.501c-.743 0-1.314.28-1.714.838-.4.56-.6 1.34-.6 2.345 0 .792.12 1.5.361 2.124.241.624.572 1.112.992 1.463.42.35.896.526 1.427.526.456 0 .867-.131 1.229-.397zm11.955.484c0 .048-.008.073-.025.073h-2.179c-.179 0-.513-.324-1.003-.974-.491-.649-1.082-1.557-1.775-2.724a2.46 2.46 0 01-.282.013c-.318 0-.543-.005-.673-.013v2.706c0 .252.02.436.062.55.04.115.12.193.238.233.119.041.308.06.57.06.016 0 .024.025.024.074 0 .05-.008.073-.024.073-.269 0-.482-.003-.637-.011l-.931-.012-.894.012a14.47 14.47 0 01-.662.011c-.024 0-.036-.024-.036-.073 0-.049.012-.073.036-.073.261 0 .451-.02.57-.06a.38.38 0 00.244-.24c.045-.118.068-.3.068-.544v-5.67c0-.244-.021-.424-.062-.539a.384.384 0 00-.244-.239c-.123-.045-.311-.067-.564-.067-.016 0-.024-.025-.024-.074 0-.049.008-.073.024-.073l.649.012c.375.016.673.024.894.024.277 0 .567-.013.869-.037a10.393 10.393 0 01.93-.036c.743 0 1.319.136 1.726.41.408.273.613.654.613 1.144 0 .45-.122.855-.367 1.218a2.723 2.723 0 01-.98.877c.654.979 1.2 1.746 1.641 2.3.442.556.833.96 1.176 1.213.342.253.677.38 1.003.38.017 0 .025.026.025.075zm-5.228-3.918c.473 0 .814-.133 1.023-.399.208-.265.312-.692.312-1.28 0-.668-.098-1.13-.294-1.383-.195-.253-.477-.38-.844-.38-.326 0-.559.06-.698.184-.138.122-.208.326-.208.613V49.8c.195.033.431.05.709.05zm7.689 2.95c0 .213.016.366.049.46a.29.29 0 00.189.19c.095.032.247.048.459.048h.417c.637 0 1.188-.168 1.653-.507.464-.34.775-.798.93-1.378 0-.017.016-.025.049-.025.016 0 .035.006.055.02.02.012.03.021.03.03a23.252 23.252 0 00-.111 2.02c0 .065-.014.112-.043.14-.029.03-.075.044-.141.044h-5.778c-.017 0-.025-.025-.025-.073 0-.05.008-.074.025-.074.261 0 .45-.02.569-.06a.38.38 0 00.245-.24c.044-.118.067-.3.067-.544v-5.669c0-.244-.022-.423-.067-.539a.41.41 0 00-.252-.239c-.122-.045-.311-.067-.563-.067-.017 0-.025-.025-.025-.073 0-.05.008-.074.025-.074l.624.012c.375.016.686.024.93.024.245 0 .555-.008.931-.024l.624-.012c.025 0 .037.025.037.074 0 .048-.012.073-.037.073-.253 0-.441.022-.564.067a.388.388 0 00-.244.245c-.041.119-.062.3-.062.545v5.608l.004-.001zm7.125 1.054a15.606 15.606 0 00-1.127-.036l-.906.011c-.163.008-.383.012-.661.012-.016 0-.025-.025-.025-.073 0-.05.009-.074.025-.074.261 0 .453-.02.575-.06a.39.39 0 00.252-.24c.044-.118.067-.3.067-.544v-5.669c0-.244-.022-.424-.067-.539a.41.41 0 00-.245-.239c-.119-.045-.304-.067-.556-.067-.025 0-.037-.025-.037-.074 0-.048.012-.073.037-.073l.648.012a14.78 14.78 0 001.923-.013c.424-.017.71-.025.857-.025.824 0 1.557.163 2.198.49.64.326 1.136.77 1.487 1.334.35.564.526 1.196.526 1.898 0 .793-.182 1.492-.545 2.1a3.74 3.74 0 01-1.47 1.409 4.214 4.214 0 01-2.026.496c-.261 0-.572-.012-.93-.036zm2.191-.643c.4-.266.712-.66.937-1.181.224-.523.336-1.148.336-1.873 0-.726-.106-1.324-.318-1.892-.212-.567-.513-1.014-.906-1.34a2.06 2.06 0 00-1.359-.489c-.515 0-.852.049-1.041.147-.187.097-.282.306-.282.624v5.51c0 .326.086.557.258.692.171.135.501.202.991.202.522 0 .983-.132 1.383-.398l.001-.002zm14.41.556c0 .05-.012.074-.036.074h-1.371c-.131 0-.241.003-.331.011-.09.008-.163.012-.22.012a.599.599 0 01-.337-.092 1.667 1.667 0 01-.342-.337 24.89 24.89 0 01-.716-.942 9.561 9.561 0 00-.141-.19 9.942 9.942 0 01-.177-.238l-1.604-2.155-.269.27v2.669c0 .252.02.436.062.55.041.115.12.193.239.233.119.041.307.06.569.06.033 0 .049.025.049.074 0 .05-.016.073-.049.073-.269 0-.482-.003-.637-.011l-.918-.012-.906.012a14.45 14.45 0 01-.661.011c-.016 0-.024-.024-.024-.073 0-.049.008-.073.024-.073.261 0 .453-.02.575-.06a.39.39 0 00.252-.24c.044-.118.067-.3.067-.544v-5.67c0-.244-.022-.424-.067-.539a.41.41 0 00-.245-.239c-.119-.045-.304-.067-.556-.067-.025 0-.036-.025-.036-.074 0-.049.011-.073.036-.073l.648.012c.375.016.673.024.895.024.244 0 .554-.008.93-.024l.624-.012c.025 0 .038.024.038.073 0 .05-.012.074-.038.074-.252 0-.439.024-.556.073a.421.421 0 00-.245.25c-.045.12-.068.3-.068.545V49.8l2.302-2.35c.236-.236.355-.453.355-.649a.383.383 0 00-.196-.342c-.13-.082-.314-.122-.551-.122-.024 0-.036-.025-.036-.074 0-.048.012-.073.036-.073l.576.012a22.19 22.19 0 002.045 0l.551-.012c.024 0 .037.025.037.073 0 .05-.012.074-.037.074-.375 0-.788.108-1.237.323a4.613 4.613 0 00-1.224.864l-1.384 1.408 1.812 2.448c.53.759.929 1.296 1.194 1.61.266.314.48.51.643.587.163.078.371.117.624.117.025 0 .036.024.036.073l-.004.002zm5.974-1.897a.13.13 0 01.068.019c.019.011.03.022.03.03a13.726 13.726 0 00-.123 1.739c0 .065-.011.112-.036.14-.024.03-.073.044-.146.044h-5.412c-.025 0-.036-.025-.036-.073 0-.05.011-.074.036-.074.261 0 .451-.02.569-.06a.366.366 0 00.239-.24c.041-.118.062-.3.062-.544v-5.669c0-.244-.021-.423-.062-.539a.387.387 0 00-.244-.239c-.123-.045-.31-.067-.564-.067-.025 0-.036-.025-.036-.073 0-.05.011-.074.036-.074h5.19c.082 0 .123.037.123.11l.024 1.629c0 .016-.022.03-.067.036-.046.008-.071 0-.08-.024-.13-.473-.351-.825-.661-1.053-.311-.229-.719-.343-1.224-.343h-.367c-.244 0-.424.054-.539.16-.114.106-.171.269-.171.49v2.497h1.016c.473 0 .837-.081 1.09-.244a.772.772 0 00.38-.686c0-.025.022-.038.068-.038.045 0 .067.012.067.038l-.011 1.102.011.588c.017.277.025.498.025.661 0 .017-.025.025-.074.025-.049 0-.073-.009-.073-.025a.933.933 0 00-.386-.79c-.257-.19-.626-.287-1.107-.287h-1.004v2.767c0 .236.044.412.135.527.09.114.233.17.429.17h.404c.637 0 1.147-.13 1.53-.39.383-.261.665-.666.844-1.213 0-.016.017-.025.049-.025l-.002-.002zm8.313-5.608c0 .05-.008.074-.025.074-.252 0-.563.157-.93.471a4.825 4.825 0 00-.98 1.181l-1.272 2.13v2.73c0 .253.019.437.06.551.041.115.12.193.239.233.119.041.307.06.569.06.025 0 .036.025.036.074 0 .05-.011.073-.036.073-.269 0-.482-.003-.637-.011l-.917-.012-.907.012c-.163.008-.384.011-.661.011-.016 0-.024-.024-.024-.073 0-.049.008-.073.024-.073.261 0 .453-.02.575-.06a.385.385 0 00.252-.24c.044-.118.067-.3.067-.544v-2.473l-1.787-2.779c-.302-.473-.553-.801-.754-.985-.2-.184-.369-.276-.507-.276-.025 0-.038-.025-.038-.074 0-.048.012-.073.038-.073l.379.012c.179.016.307.024.38.024.285 0 .697-.008 1.237-.024l.808-.012c.016 0 .024.025.024.073 0 .05-.008.074-.024.074a.492.492 0 00-.325.098.32.32 0 00-.117.257c0 .13.058.285.172.465l1.677 2.645 1.126-1.923c.22-.367.331-.681.331-.942 0-.196-.06-.345-.177-.448-.119-.1-.288-.152-.508-.152-.025 0-.036-.025-.036-.074 0-.048.011-.073.036-.073l.649.012c.374.016.71.024 1.003.024.139 0 .307-.008.502-.024l.453-.012c.017 0 .025.025.025.073zM28.59 80.22c3.67 2 8.105 1.121 11.877-.44 4.638-2.048 8.46-5.658 11.57-9.757 1.58-2.146 3.058-4.83 3.67-7.707.611-3.025-.867-6.196-4.639-6.196-3.313 0-6.626 2.048-9.123 4.244-3.568 3.122-5.913 8.488-5.76 11.318 0 .196-.255.196-.255 0-.103-1.707.51-3.952 1.733-6.294 1.121-2.049 2.65-4 4.077-5.269 2.548-2.244 5.606-4.146 9.174-4.537 4.588-.537 7.34 2.536 6.78 7.025-.408 3.171-2.09 6.05-4.232 8.586-3.21 3.853-8.359 7.415-12.794 8.976-3.772 1.317-8.155 2.39-12.181.34-3.466-1.755-5.046-5.511-5.25-9.073-.255-4.146.918-8.244 2.65-11.952 2.549-5.512 6.117-10.488 10.348-15.025-6.473.683-15.139 2.44-21 6.147-5.606 3.513-10.806 8.88-12.59 15.562-.968 3.61-.458 8.147 3.008 10.391 2.498 1.61 5.657 1.659 8.868.488.204-.097.306.147.103.244-3.211 1.17-6.32 1.22-9.226-.292C1.37 74.9-.26 69.973.658 65.779 2.136 58.654 8.202 53.044 14.93 49.63c6.219-3.172 14.832-4.83 21.662-5.562 5.81-6.245 12.896-11.904 20.796-16.197 3.925-2.097 8.053-3.756 12.488-4.585 2.702-.488 7.646-.878 9.43 1.805 2.344 3.513-2.294 8.05-5.353 10.001-8.257 5.318-22.732 8.05-33.844 8.927-4.69 5.024-8.868 10.391-11.825 16.49-1.631 3.414-2.803 7.219-3.313 10.927-.459 3.22.511 7.076 3.62 8.783zM79 25.337c-1.58-2.537-6.167-2.049-8.97-1.415-4.281 1.025-8.002 2.976-11.723 5.22-6.575 4-12.436 8.927-17.89 14.538 11.01-.878 25.332-3.61 33.436-8.88 2.803-1.804 7.29-6.048 5.148-9.463zM57.149 75.829c0-2 .612-4.098 2.04-6.293 2.039-3.123 4.893-5.66 7.9-7.026 1.58-.731 4.027-1.317 5.25-.146.918.927.612 2.877.204 4.049.51.39.51 1.366-.103 2.195-.407.586-.968.976-1.477 1.074a.939.939 0 00.611 1.17c.56.147 1.325.099 2.192-.292.917-.439 1.835-1.121 3.007-2.439.102-.097.306 0 .203.147-1.07 1.22-2.14 2.049-3.21 2.537-.816.341-1.478.439-2.243.292-.46-.098-.918-.39-1.07-.634-.816 1.268-1.836 2.487-2.906 3.61-2.294 2.342-5.353 4.683-7.646 4.732-1.681 0-2.752-1.22-2.752-2.976zm10.194-1.952c1.121-1.121 2.04-2.342 2.956-3.61-.56-.927-.51-2 .051-2.829.51-.78 1.376-1.268 1.936-1.122.408-.976.663-2.878-.152-3.756-1.173-1.17-3.414.098-4.435.83-2.039 1.415-4.434 4.488-6.116 7.025-.815 1.22-2.243 3.902-2.752 5.56-.306 1.026-.408 2.635 1.02 2.586 2.088-.049 5.096-2.147 7.492-4.684zm5.3 4.538c-1.325-.147-3.007.195-3.925.976.766-.879 2.04-2.635 3.161-4.195 2.447-3.464 4.842-7.075 7.29-10.587l1.68-2.439c1.326.196 2.957-.196 3.925-.976-1.58 1.805-5.402 7.464-5.402 7.464l-.56.83c3.72-4.244 7.9-7.659 10.04-7.61 1.632.049 2.549 1.074 2.345 2.537-.356 2.585-3.058 5.463-4.79 7.854-.766 1.074-2.244 3.024-2.855 4.146-.612 1.122-.357 1.952.152 2.049.612.146 1.682-.44 2.498-1.025 2.548-1.805 5.709-5.464 8.819-9.319.152-.195.356-.049.203.147-3.11 3.854-6.269 7.562-8.868 9.366-.867.586-1.784 1.122-2.702 1.122-1.784 0-2.09-2.098-1.733-3.317.459-1.61 1.478-3.171 2.447-4.538 1.632-2.244 3.364-4.488 4.791-6.878.408-.683.663-1.854-.459-1.854-2.294 0-7.594 4.488-12.131 10.489l-3.926 5.758zm19.216-2.342c-.204-1.708.255-3.317 1.07-4.781a19.902 19.902 0 013.466-4.683c2.089-2.098 4.791-4.146 7.9-4.83.969-.196 2.141-.147 2.702.439.306.341.51.878.408 1.464-.153.976-.969 2.049-1.581 2.634-.662.635-1.631 1.074-2.039.78-.459-.34-.306-1.17.356-1.853.511-.537 1.836-1.122 2.141-.293a2.01 2.01 0 00.866-1.268c.103-.488 0-1.025-.306-1.317-.459-.488-1.631-.39-2.395-.098-2.345.976-4.639 3.317-6.423 5.61-1.478 1.854-4.129 5.757-4.486 8.245-.204 1.463.102 2.293 1.784 2.293 1.02 0 3.16-.927 5.097-2.245 2.752-1.854 5.709-4.585 8.615-8.049.153-.146.356 0 .204.147-2.752 3.366-5.76 6.147-8.665 8.098-2.294 1.61-4.28 2.39-5.76 2.39-1.58 0-2.75-1.122-2.954-2.683zm21.356-13.904c1.325.196 2.905-.196 3.823-.976a59.958 59.958 0 00-3.211 4.342c-1.936 2.878-4.231 5.806-6.065 8.927-.356.586-2.752 4.488-.204 3.903.816-.196 1.988-.976 3.059-1.903 2.395-2.049 5.097-5.318 7.645-8.343.102-.147.306 0 .204.147-2.548 3.073-5.25 6.294-7.697 8.342-1.07.927-2.089 1.61-3.058 1.952-1.377.537-2.854-.243-2.854-1.854 0-2.146 1.376-4.39 2.498-6.147 2.039-3.122 4.534-6.34 5.86-8.39zm2.823-4.866c.866-1.17 1.988-1.903 2.548-1.56.56.34.306 1.512-.51 2.683-.867 1.17-1.988 1.903-2.548 1.56-.56-.292-.307-1.512.51-2.683zm2.172 21.112c1.426.097 3.414-.683 5.657-2.196 2.702-1.854 5.81-4.683 8.665-8.097.102-.098.306 0 .204.146-2.549 3.172-5.862 6.196-8.716 8.147-1.427.927-3.772 2.342-5.709 2.342-2.956 0-3.364-2.488-3.211-4.342.204-2 1.223-3.61 2.345-5.22.968-1.366 2.191-2.634 3.618-3.756 2.089-1.658 4.995-3.463 7.339-3.707 1.836-.195 2.599 1.22 1.632 2.781-1.377 2.245-7.086 5.416-10.5 5.855-1.223 1.61-1.836 3.025-2.345 4.538-.356 1.073-.765 3.414 1.019 3.512l.002-.003zm10.244-16.343c-2.548.39-6.931 5.513-8.715 8.002 3.058-.342 8.767-3.513 10.092-5.708.765-1.269.356-2.537-1.377-2.294zm14.73 3.952c-.969.537-5.301 4.05-7.748 7.415-.815 1.122-1.784 2.586-3.669 5.171-1.326-.195-2.956.196-3.874.976.815-.976 2.294-3.024 3.466-4.731 1.937-2.976 3.873-5.416 5.657-8.147.714-1.17 3.059-4.293 2.345-4.489-1.173-.341-4.994 4.098-6.625 6.05-.103.146-.357.048-.204-.148 1.733-2.097 5.146-6.146 6.88-6.244 1.377-.05 1.784 1.268 1.173 2.78-.867 2.196-1.937 4.05-3.721 6.636 2.344-2.635 4.995-4.634 6.473-5.66.765-1.853 1.988-3.61 3.568-4.829.663-.537 1.427-.731 1.835-.488.103.049.357.243.255.683-.306 1.658-3.007 3.316-4.791 4.341-.662.78-1.325 2.293-1.426 3.025-.357 2.586 1.376 3.513 3.772 2.39 1.07-.488 2.191-1.464 3.262-2.635.152-.195.356 0 .203.147-1.07 1.22-2.242 2.147-3.364 2.684-2.498 1.219-4.536.146-4.18-2.586.103-.683.356-1.657.713-2.341zm11.213 15.025c4.791-3.268 9.429-7.074 14.373-12.928.153-.146.356-.048.204.147-5.199 6.147-9.99 10.05-14.986 13.367-3.823 5.512-7.544 11.075-11.673 16.391-2.446 3.172-5.402 6.098-8.767 8.392-1.019.731-3.364 2.048-4.689 1.415-.408-.196-.714-.586-.816-1.122-.306-1.805 1.223-5.122 4.18-8.684 3.262-3.902 6.728-6.732 10.449-9.269 2.089-1.415 4.231-2.829 6.422-4.146a458.39 458.39 0 019.43-14.05c-1.885 2.536-4.791 5.854-7.594 7.513-1.427.829-3.772 1.219-4.231-.927-.408-1.757.407-4.391.917-5.513 1.682-3.707 5.454-7.268 8.512-8.732 1.377-.635 4.486-2 5.709-.244.714 1.025.153 2.537-.407 3.61.969-1.365 1.936-2.78 2.955-4.098 1.326.196 2.906-.195 3.824-.976a59.913 59.913 0 00-3.211 4.342c.408-.586-6.014 8.878-10.601 15.512zm-21.103 25.075c2.752-2.097 5.403-5.806 7.595-9.074 2.702-4 5.301-8 7.952-12-1.937 1.17-4.129 2.634-6.016 3.902-3.669 2.537-7.135 5.318-10.347 9.221-2.854 3.464-4.486 6.829-4.18 8.488.103.439.357.829.663.976 1.173.586 3.212-.682 4.333-1.513zm17.586-28.295c2.599-1.513 6.676-5.902 9.736-10.781 1.222-1.903 1.58-3.415 1.019-4.244-1.223-1.659-4.028.098-5.199 1.121-2.498 2.098-4.486 4.928-6.065 7.757-.969 1.756-2.752 5.463-2.141 6.39.408.635 1.681.341 2.65-.243zm17.84.586c1.427.097 3.415-.683 5.657-2.196 2.702-1.854 5.81-4.683 8.665-8.097.102-.098.306 0 .204.146-2.548 3.172-5.862 6.196-8.716 8.147-1.427.927-3.772 2.342-5.709 2.342-2.955 0-3.364-2.488-3.21-4.342.203-2 1.222-3.61 2.344-5.22.969-1.366 2.192-2.634 3.618-3.756 2.089-1.658 4.995-3.463 7.339-3.707 1.836-.195 2.6 1.22 1.632 2.781-1.377 2.245-7.085 5.416-10.5 5.855-1.223 1.61-1.835 3.025-2.344 4.538-.357 1.073-.765 3.414 1.019 3.512l.001-.003zm10.245-16.343c-2.548.39-6.932 5.513-8.716 8.002 3.058-.342 8.767-3.513 10.092-5.708.765-1.269.357-2.537-1.376-2.294z" fill="#D9D9D9"/></svg>