<svg width="35" height="35" viewBox="0 0 35 35" fill="none" xmlns="http://www.w3.org/2000/svg">
<path d="M4.50758 27.5592C2.68466 25.554 1.59091 23.3665 1.59091 19.7206C1.59091 13.3404 6.1482 7.68937 12.5284 4.77271L14.169 7.1425C8.15341 10.4237 6.87737 14.6165 6.51279 17.3508C7.42425 16.804 8.70029 16.6217 9.97633 16.804C13.2576 17.1685 15.8097 19.7206 15.8097 23.1842C15.8097 24.8248 15.0805 26.4654 13.9867 27.7415C12.7107 29.0175 11.2524 29.5644 9.42945 29.5644C7.42425 29.5644 5.60133 28.6529 4.50758 27.5592ZM22.7367 27.5592C20.9138 25.554 19.8201 23.3665 19.8201 19.7206C19.8201 13.3404 24.3774 7.68937 30.7576 4.77271L32.3982 7.1425C26.3826 10.4237 25.1065 14.6165 24.742 17.3508C25.6534 16.804 26.9295 16.6217 28.2055 16.804C31.4867 17.1685 34.0388 19.7206 34.0388 23.1842C34.0388 24.8248 33.3097 26.4654 32.2159 27.7415C31.1222 29.0175 29.4815 29.5644 27.6586 29.5644C25.6534 29.5644 23.8305 28.6529 22.7367 27.5592Z" fill="white"/>
</svg>
