<svg width="24" height="24" viewBox="0 0 24 24" fill="none" xmlns="http://www.w3.org/2000/svg">
<path d="M12.001 2C17.524 2 22.001 6.477 22.001 12C22.001 17.523 17.524 22 12.001 22C10.2338 22.0029 8.49765 21.5352 6.971 20.645L2.005 22L3.357 17.032C2.46609 15.5049 1.99805 13.768 2.001 12C2.001 6.477 6.478 2 12.001 2ZM8.593 7.3L8.393 7.308C8.26352 7.31589 8.13698 7.3499 8.021 7.408C7.91252 7.46943 7.81349 7.54622 7.727 7.636C7.607 7.749 7.539 7.847 7.466 7.942C7.09612 8.4229 6.89697 9.01331 6.9 9.62C6.902 10.11 7.03 10.587 7.23 11.033C7.639 11.935 8.312 12.89 9.2 13.775C9.414 13.988 9.624 14.202 9.85 14.401C10.9534 15.3725 12.2683 16.073 13.69 16.447L14.258 16.534C14.443 16.544 14.628 16.53 14.814 16.521C15.1052 16.506 15.3896 16.4271 15.647 16.29C15.778 16.2225 15.9058 16.1491 16.03 16.07C16.03 16.07 16.073 16.042 16.155 15.98C16.29 15.88 16.373 15.809 16.485 15.692C16.568 15.606 16.64 15.505 16.695 15.39C16.773 15.227 16.851 14.916 16.883 14.657C16.907 14.459 16.9 14.351 16.897 14.284C16.893 14.177 16.804 14.066 16.707 14.019L16.125 13.758C16.125 13.758 15.255 13.379 14.723 13.137C14.6673 13.1127 14.6077 13.0988 14.547 13.096C14.4786 13.089 14.4094 13.0967 14.3442 13.1186C14.2791 13.1405 14.2193 13.1761 14.169 13.223C14.164 13.221 14.097 13.278 13.374 14.154C13.3325 14.2098 13.2753 14.2519 13.2098 14.2751C13.1443 14.2982 13.0733 14.3013 13.006 14.284C12.9409 14.2665 12.877 14.2445 12.815 14.218C12.691 14.166 12.648 14.146 12.563 14.11C11.9891 13.8595 11.4577 13.5211 10.988 13.107C10.862 12.997 10.745 12.877 10.625 12.761C10.2316 12.3842 9.88872 11.958 9.605 11.493L9.546 11.398C9.50362 11.3342 9.46936 11.2653 9.444 11.193C9.406 11.046 9.505 10.928 9.505 10.928C9.505 10.928 9.748 10.662 9.861 10.518C9.971 10.378 10.064 10.242 10.124 10.145C10.242 9.955 10.279 9.76 10.217 9.609C9.937 8.925 9.647 8.244 9.349 7.568C9.29 7.434 9.115 7.338 8.956 7.319C8.902 7.313 8.848 7.307 8.794 7.303C8.6597 7.29633 8.52513 7.29766 8.391 7.307L8.592 7.299L8.593 7.3Z" fill="white"/>
</svg>
