<svg width="35" height="35" fill="none" xmlns="http://www.w3.org/2000/svg"><path d="M4.508 27.56c-1.823-2.006-2.917-4.194-2.917-7.84 0-6.38 4.557-12.03 10.937-14.947l1.641 2.37c-6.016 3.28-7.292 7.474-7.656 10.208.911-.547 2.187-.73 3.463-.547 3.282.365 5.834 2.917 5.834 6.38 0 1.64-.73 3.281-1.823 4.557-1.276 1.276-2.735 1.823-4.558 1.823-2.005 0-3.828-.911-4.921-2.005zm18.229 0c-1.823-2.006-2.917-4.194-2.917-7.84 0-6.38 4.557-12.03 10.938-14.947l1.64 2.37c-6.015 3.28-7.292 7.474-7.656 10.208.911-.547 2.188-.73 3.463-.547 3.282.365 5.834 2.917 5.834 6.38 0 1.64-.73 3.281-1.823 4.557-1.094 1.276-2.735 1.823-4.557 1.823-2.006 0-3.828-.911-4.922-2.005z" fill="#fff"/></svg>